<?xml version="1.0" encoding="UTF-8" standalone="no"?>
<!-- Created with Inkscape (http://www.inkscape.org/) -->

<svg
   width="78.806305mm"
   height="26.659927mm"
   viewBox="0 0 78.806305 26.659927"
   version="1.1"
   id="svg5"
   xml:space="preserve"
   inkscape:export-filename="s23_logo.svg"
   inkscape:export-xdpi="96"
   inkscape:export-ydpi="96"
   xmlns:inkscape="http://www.inkscape.org/namespaces/inkscape"
   xmlns:sodipodi="http://sodipodi.sourceforge.net/DTD/sodipodi-0.dtd"
   xmlns="http://www.w3.org/2000/svg"
   xmlns:svg="http://www.w3.org/2000/svg"><sodipodi:namedview
     id="namedview7"
     pagecolor="#505050"
     bordercolor="#eeeeee"
     borderopacity="1"
     inkscape:showpageshadow="0"
     inkscape:pageopacity="0"
     inkscape:pagecheckerboard="0"
     inkscape:deskcolor="#505050"
     inkscape:document-units="mm"
     showgrid="false" /><defs
     id="defs2" /><g
     inkscape:label="Layer 1"
     inkscape:groupmode="layer"
     id="layer1"
     transform="translate(-43.978929,-83.120809)"><text
       xml:space="preserve"
       style="font-style:normal;font-variant:normal;font-weight:300;font-stretch:normal;font-size:19.7556px;font-family:Dosis;-inkscape-font-specification:'Dosis Light';writing-mode:lr-tb;direction:ltr;fill:#f2f2f2;fill-opacity:1;stroke:none;stroke-width:0.4;stroke-dasharray:none;stroke-opacity:1"
       x="51.225399"
       y="103.86908"
       id="text3722"
       inkscape:export-filename="s23_logo.svg"
       inkscape:export-xdpi="96"
       inkscape:export-ydpi="96"><tspan
         sodipodi:role="line"
         id="tspan3720"
         style="font-style:normal;font-variant:normal;font-weight:200;font-stretch:normal;font-family:Dosis;-inkscape-font-specification:'Dosis Ultra-Light';stroke:none;stroke-width:0.4;stroke-dasharray:none"
         x="51.225399"
         y="103.86908">Studio23</tspan></text><g
       id="g4174"
       style="stroke-width:0.3;stroke-dasharray:none"><path
         style="fill:#f2f2f2;fill-opacity:1;stroke:#f2f2f2;stroke-width:0.3;stroke-dasharray:none;stroke-opacity:1"
         id="path4132"
         d="m 54.643054,84.405658 c -2.501818,-0.293153 -5.020294,-0.402825 -7.536797,-0.471217 -0.599114,0.0105 -1.29168,-0.01513 -1.891403,0.115911 -0.312705,0.06833 -0.638778,0.187341 -0.8074,0.485577 -0.164938,0.291719 -0.116133,0.644887 -0.114831,0.956588 0.107952,1.073374 0.245541,2.143651 0.374737,3.214674 0,0 0.851884,0.420745 0.851884,0.420745 v 0 c -0.138827,-1.065458 -0.2712,-2.132057 -0.373594,-3.201696 -0.0034,-0.261157 -0.05034,-0.632457 0.0872,-0.885724 0.14851,-0.273466 0.46551,-0.387033 0.744339,-0.450999 0.593955,-0.136255 1.243438,-0.117165 1.842233,-0.134276 2.540711,0.05455 5.086479,0.169487 7.603751,0.537994 0,0 -0.780118,-0.587577 -0.780118,-0.587577 z" /><path
         style="fill:#f2f2f2;fill-opacity:1;stroke:#f2f2f2;stroke-width:0.3;stroke-dasharray:none;stroke-opacity:1"
         id="path4134"
         d="m 44.538365,102.67166 c -0.149807,1.51261 -0.316479,3.02393 -0.405037,4.54163 7.93e-4,0.1592 -0.03461,0.70929 0.08411,0.89746 0.06558,0.10394 0.180242,0.17353 0.291484,0.22578 0.441758,0.20748 0.886637,0.42018 1.357471,0.54869 0.128854,0.0352 1.433097,-0.001 1.506646,-0.003 1.296609,-0.0133 2.592006,-0.0506 3.887277,-0.10855 0,0 -0.779775,-0.56074 -0.779775,-0.56074 v 0 c -1.286563,0.0685 -2.574002,0.10828 -3.86238,0.12251 -0.269936,0.002 -0.539898,0.0118 -0.80981,0.007 -0.235519,-0.004 -0.52841,-0.18688 -0.705921,-0.032 -0.122677,0.107 0.318661,0.214 0.310911,0.3766 -0.0057,0.11931 -0.244819,-0.0669 -0.321296,-0.1587 -0.142238,-0.17066 -0.117454,-0.74009 -0.122444,-0.88424 0.06058,-1.51387 0.215302,-3.02268 0.442952,-4.52061 0,0 -0.874186,-0.45231 -0.874186,-0.45231 z" /><path
         style="fill:#f2f2f2;fill-opacity:1;stroke:#f2f2f2;stroke-width:0.3;stroke-dasharray:none;stroke-opacity:1"
         id="path4136"
         d="m 111.2948,109.62144 c 2.66631,-0.14205 5.33759,-0.1667 8.00711,-0.18988 0.89152,-0.017 1.78341,0.004 2.67494,-0.005 0.0809,-7.9e-4 0.45663,0.0113 0.58261,-0.0569 0.0336,-0.0182 0.0417,-0.064 0.0626,-0.096 -0.0157,-0.0544 -0.0194,-0.11395 -0.0472,-0.16335 -0.0346,-0.0616 -0.0905,-0.10849 -0.13602,-0.16245 -0.14531,-0.1721 -0.2347,-0.26489 -0.36097,-0.46072 -0.20782,-0.32229 -0.23455,-0.43109 -0.39918,-0.80764 -0.0866,-0.27074 -0.1947,-0.53551 -0.25969,-0.81222 -0.4558,-1.9405 -0.46807,-4.01151 -0.51992,-5.99453 0,0 -0.77723,-0.39325 -0.77723,-0.39325 v 0 c 0.034,1.11064 0.0524,2.03761 0.12842,3.15052 0.0598,0.87561 0.15187,1.96512 0.3292,2.84008 0.0557,0.27486 0.15346,0.53949 0.23019,0.80924 0.21994,0.54735 0.4659,1.12813 0.95057,1.49763 -0.0268,0.0856 -0.006,0.0523 -0.18687,0.0723 -0.12107,0.0135 -0.24315,0.0159 -0.36491,0.02 -0.87239,0.029 -1.74592,0.0217 -2.6184,0.046 -2.69644,0.0396 -5.39297,0.0737 -8.08905,0.13457 0,0 0.79384,0.57127 0.79384,0.57127 z" /><path
         style="fill:#f2f2f2;fill-opacity:1;stroke:#f2f2f2;stroke-width:0.3;stroke-dasharray:none;stroke-opacity:1"
         id="path4138"
         d="m 119.7586,90.003064 c -0.17202,-1.691116 -0.42851,-3.371688 -0.74793,-5.04086 -0.0459,-0.188881 -0.15236,-0.757293 -0.29803,-0.962496 -0.061,-0.08593 -0.15374,-0.14996 -0.24928,-0.194416 -0.40574,-0.188796 -0.81115,-0.393385 -1.24549,-0.501128 -0.19258,-0.04777 -0.39554,0.03216 -0.59354,0.04494 -0.27735,0.01791 -0.55496,0.03142 -0.83244,0.04713 -0.40119,0.0036 -0.8024,0.01519 -1.20359,0.01087 -1.88609,-0.02032 -1.83221,-0.07638 -3.90468,-0.11553 -2.08574,-0.0394 -3.33502,-0.01392 -5.42237,0.0044 0,0 0.62255,0.451495 0.62255,0.451495 v 0 c 2.41291,-0.02008 3.03683,-0.04781 5.45305,0.02257 2.43404,0.07091 1.80815,0.113906 3.97735,0.164161 0.41058,0.0095 0.82138,0.003 1.23206,0.0044 0.2833,-0.01185 0.56659,-0.02397 0.8499,-0.03557 0.19945,-0.0082 0.53191,0.164436 0.59838,-0.02379 0.068,-0.192611 -0.3378,-0.250153 -0.43895,-0.427622 -0.0519,-0.09105 0.20889,0.06758 0.27843,0.145973 0.16658,0.187812 0.29084,0.781627 0.33922,0.958321 0.33941,1.649918 0.60278,3.316907 0.70741,4.999741 0,0 0.87795,0.447339 0.87795,0.447339 z" /><path
         style="fill:#f2f2f2;fill-opacity:1;stroke:#f2f2f2;stroke-width:0.3;stroke-dasharray:none;stroke-opacity:1"
         id="path4148"
         d="m 81.512642,109.43436 c 0.289216,-0.005 0.578474,-0.004 0.867717,-0.005 0,0 -0.787948,-0.57248 -0.787948,-0.57248 v 0 c -0.293439,-1.6e-4 -0.586893,1e-5 -0.880308,-0.005 0,0 0.800539,0.58163 0.800539,0.58163 z" /><path
         style="fill:#f2f2f2;fill-opacity:1;stroke:#f2f2f2;stroke-width:0.3;stroke-dasharray:none;stroke-opacity:1"
         id="path4150"
         d="m 99.745934,83.522688 c -1.667666,-0.05459 -3.336502,-0.01987 -5.004517,-0.0036 -2.315718,0.02677 -4.631952,0.0058 -6.946556,-0.06981 -0.254204,-0.0099 -0.508405,-0.01979 -0.762606,-0.0297 0,0 0.755782,0.552908 0.755782,0.552908 v 0 c 0.250016,0.0066 0.500034,0.01331 0.750049,0.01998 2.31049,0.05385 4.621966,0.07879 6.933044,0.05584 1.689491,-0.01291 3.38183,-0.0453 5.06914,0.06086 0,0 -0.794336,-0.586492 -0.794336,-0.586492 z" /></g></g></svg>
